<?xml version="1.0" encoding="UTF-8" standalone="no"?> <svg id="Layer_1" data-name="Layer 1" xmlns="http://www.w3.org/2000/svg" viewBox="0 0 128 128"><defs><style>.cls-1{fill:#3b4551;}.cls-2{fill:#2b77c0;}</style></defs><title>a</title><path class="cls-1" 
d="M90.81152,90.91273,66.29034,84.72144,49.42317,97.39651,32.556,84.72144,8.03481,90.91273a7.20717,7.20717,0,0,0-5.16744,5.41113L1.795,121.8201a2.54679,2.54679,0,0,0,2.63237,2.68117l44.99578-.43888,44.99578.43888a2.54679,2.54679,0,0,0,2.63237-2.68117L95.979,96.32386A7.20717,7.20717,0,0,0,90.81152,90.91273Z"/><path class="cls-1" d="M46.85775,78.4513c.82985.053,4.77231.06873,5.814-.06576C64.28876,76.88532,70.73,56.49643,70.73,45.69767a21.30667,21.30667,0,1,0-42.61334,0C28.11665,56.7059,34.81049,77.681,46.85775,78.4513Z"/><path class="cls-2" d="M116.74009,3.49731H67.51443a9.49428,9.49428,0,0,0-9.46636,9.46636v6.74562A27.43379,27.43379,0,0,1,76.82369,45.69737,50.69162,50.69162,0,0,1,75.469,56.52826H92.52478l8.50083,11.7384a1.1169,1.1169,0,0,0,1.79865,0l4.43043-6.11512,3.80559-5.2823.24607-.341h5.43375a9.482,9.482,0,0,0,9.46636-9.46636V12.96367A9.482,9.482,0,0,0,116.74009,3.49731ZM90.234,16.08759a2.36754,2.36754,0,0,1,.79533.15145c.13241.07587.26481.17049.37848.24637a1.70442,1.70442,0,0,1,.3029.208,3.15546,3.15546,0,0,1,.22732.3032,1.62287,1.62287,0,0,1,.24607.37848,2.15357,2.15357,0,0,1,.18924.85187,2.13,2.13,0,0,1-4.25994,0A2.01258,2.01258,0,0,1,90.234,16.08759Zm8.217,24.6887a2.15685,2.15685,0,0,1-1.15507,1.15477l-2.10155.87091a7.08764,7.08764,0,0,1-6.22878-.41656A6.45845,6.45845,0,0,1,85.728,37.63333a5.319,5.319,0,0,1-.07587-.94678l.019-.26511,1.43892-11.17009a2.037,2.037,0,0,1,.81408-1.42018,1.92687,1.92687,0,0,1,1.55258-.41656,2.08219,2.08219,0,0,1,1.41988.79533,2.24517,2.24517,0,0,1,.43531,1.57133L89.912,36.81925c.019.05683.019.15145.03809.227a2.19473,2.19473,0,0,0,1.13573,1.6472,2.859,2.859,0,0,0,2.48033.17049l2.10155-.87091a2.19921,2.19921,0,0,1,1.62816,0A2.15617,2.15617,0,0,1,98.451,39.14783,2.2,2.2,0,0,1,98.451,40.77629Z"/></svg>